<svg width="20" height="20" viewBox="0 0 20 20" fill="none" xmlns="http://www.w3.org/2000/svg">
<path d="M10.01 0.019043C4.51504 0.019043 0.019043 4.51504 0.019043 10.01C0.019043 15.504 4.51504 20 10.01 20C15.504 20 20 15.504 20 10.01C20 4.51504 15.554 0.019043 10.01 0.019043ZM14.605 14.455C14.406 14.754 14.056 14.855 13.755 14.656C11.406 13.206 8.45904 12.906 4.96204 13.705C4.61404 13.807 4.31404 13.557 4.21404 13.256C4.11304 12.906 4.36304 12.608 4.66404 12.507C8.45904 11.657 11.757 12.008 14.354 13.607C14.704 13.756 14.754 14.155 14.605 14.455ZM15.805 11.708C15.554 12.057 15.105 12.207 14.754 11.957C12.057 10.311 7.96204 9.80904 4.81504 10.809C4.41704 10.91 3.96504 10.709 3.86604 10.311C3.76504 9.90904 3.96604 9.45904 4.36504 9.35904C8.01104 8.26104 12.508 8.81104 15.604 10.71C15.904 10.859 16.054 11.358 15.805 11.708ZM15.904 8.90904C12.707 7.01204 7.36204 6.81204 4.31404 7.76304C3.81504 7.91104 3.31404 7.61204 3.16604 7.16304C3.01604 6.66104 3.31404 6.16204 3.76504 6.01204C7.31204 4.96304 13.157 5.16204 16.854 7.36304C17.303 7.61204 17.453 8.21204 17.203 8.66104C16.953 9.01104 16.354 9.15904 15.904 8.90904Z" fill="#2E3A59"/>
</svg>
