<svg width="1440" height="1174" viewBox="0 0 1440 1174" fill="none" xmlns="http://www.w3.org/2000/svg">
<g clip-path="url(#clip0)">
<rect width="1440" height="1174" fill="#141414"/>
<circle cx="1075" cy="1088" r="195" fill="#C4C4C4" fill-opacity="0.05"/>
<circle cx="1075" cy="1082" r="180" fill="#C4C4C4" fill-opacity="0.05"/>
<path d="M408.167 607.996C678.521 607.996 897.691 410.224 897.691 166.287C897.667 102.583 882.588 39.7842 853.682 -17L-17 -17V385.357C67.3624 518.363 226.16 607.996 408.167 607.996Z" stroke="#FF1D25" stroke-width="9" stroke-miterlimit="10"/>
<path d="M1125.97 146.92C1125.97 85.0401 1115.8 23.5803 1095.84 -35L-53 -35V578.931C71.7567 694.648 246.205 766.54 439.262 766.54C818.517 766.54 1125.97 489.12 1125.97 146.92Z" stroke="#3E8E9B" stroke-width="9" stroke-miterlimit="10"/>
<path opacity="0.2" d="M1128.97 146.92C1128.97 85.0401 1118.8 23.5803 1098.84 -35L-50 -35V578.931C74.7567 694.648 249.205 766.54 442.262 766.54C821.517 766.54 1128.97 489.12 1128.97 146.92Z" stroke="#3E8E9B" stroke-width="30" stroke-miterlimit="10"/>
<path opacity="0.2" d="M897.691 166.287C897.691 410.224 678.521 607.996 408.167 607.996C226.16 607.996 67.3624 518.363 -17 385.357V-17H853.682C882.588 39.7842 897.667 102.583 897.691 166.287V166.287Z" stroke="#FF1D25" stroke-width="30" stroke-miterlimit="10"/>
<path d="M251.811 134.506C236.182 131.654 220.074 132.995 205.132 138.391C200.11 140.209 195.258 142.466 190.631 145.134C172.431 155.672 158.521 172.268 151.336 192.018C144.151 211.768 144.15 233.414 151.331 253.165C158.512 272.916 172.419 289.515 190.617 300.056C208.816 310.597 230.146 314.409 250.874 310.824C271.602 307.238 290.407 296.485 303.997 280.445C317.588 264.406 325.098 244.102 325.213 223.089C325.328 202.076 318.041 181.691 304.627 165.504C291.213 149.317 272.526 138.359 251.839 134.547L251.811 134.506Z" fill="#FF931E"/>
<path d="M287.468 267.239C293.616 265.023 296.327 256.939 293.534 249.184C290.741 241.428 283.456 236.956 277.321 239.185L295.465 232.62C301.613 230.404 304.324 222.32 301.517 214.578C298.71 206.836 291.453 202.35 285.304 204.566L255.604 215.289C261.766 213.074 264.464 205.003 261.657 197.248C258.85 189.492 251.606 185.02 245.458 187.235L266.08 179.795C272.228 177.565 274.939 169.481 272.146 161.739C269.352 153.998 262.081 149.497 255.919 151.727L246.855 154.996C253.003 152.78 255.714 144.71 252.907 136.955C252.603 136.112 252.237 135.294 251.811 134.506C239.661 132.237 227.17 132.535 215.142 135.382C213.998 135.357 212.86 135.548 211.787 135.942L205.132 138.391C200.11 140.209 195.258 142.466 190.631 145.134C171.282 156.36 156.836 174.41 150.135 195.735C143.433 217.061 144.96 240.119 154.415 260.378C163.87 280.636 180.57 296.628 201.231 305.21C221.891 313.792 245.019 314.343 266.066 306.755L275.213 303.445C276.705 302.909 278.042 302.011 279.102 300.833C296.951 290.938 310.877 275.242 318.565 256.351C317.817 256.433 317.082 256.603 316.374 256.857L287.468 267.239Z" fill="#F15A24"/>
<path d="M264.013 275.692L235.257 286.115C241.419 283.885 244.117 275.802 241.31 268.06C238.503 260.318 231.259 255.818 225.097 258.047L243.254 251.495C249.402 249.266 252.113 241.196 249.306 233.454C246.499 225.712 239.256 221.212 233.094 223.441L203.339 234.138C209.473 231.908 212.198 223.838 209.391 216.083C206.584 208.327 199.327 203.854 193.179 206.084L213.8 198.629C219.949 196.413 222.66 188.316 219.853 180.574C217.046 172.832 209.788 168.346 203.64 170.562L194.562 173.844C200.724 171.615 203.435 163.545 200.628 155.803C198.588 150.181 194.219 146.228 189.673 145.408C170.305 156.621 155.839 174.671 149.125 196.004C142.411 217.338 143.934 240.409 153.394 260.676C162.855 280.944 179.568 296.94 200.243 305.516C220.918 314.092 244.058 314.627 265.108 307.015L274.269 303.719C275.761 303.176 277.097 302.274 278.157 301.092C281.416 297.536 282.443 291.518 280.335 285.663C277.473 277.908 270.215 273.476 264.013 275.692Z" fill="#FF931E"/>
<path d="M609.739 1063.47C611.251 1063.47 612.477 1062.25 612.477 1060.74C612.477 1059.22 611.251 1058 609.739 1058C608.226 1058 607 1059.22 607 1060.74C607 1062.25 608.226 1063.47 609.739 1063.47Z" stroke="#FF1D25" stroke-width="9" stroke-miterlimit="10"/>
<path d="M48.7386 792.471C50.2511 792.471 51.4772 791.246 51.4772 789.736C51.4772 788.225 50.2511 787 48.7386 787C47.2261 787 46 788.225 46 789.736C46 791.246 47.2261 792.471 48.7386 792.471Z" stroke="#FF1D25" stroke-width="9" stroke-miterlimit="10"/>
<path d="M145 1087C147.761 1087 150 1084.76 150 1082C150 1079.24 147.761 1077 145 1077C142.239 1077 140 1079.24 140 1082C140 1084.76 142.239 1087 145 1087Z" stroke="#FF1D25" stroke-width="9" stroke-miterlimit="10"/>
<path d="M1236.26 1078.53C1236.33 1118.5 1221.49 1157.06 1194.64 1186.69C1191.37 1190.34 1187.94 1193.81 1184.35 1197.09H964.771C942.795 1176.78 926.893 1150.78 918.835 1121.98C910.778 1093.18 910.881 1062.71 919.134 1033.97C927.387 1005.22 943.465 979.33 965.579 959.174C987.692 939.018 1014.97 925.388 1044.38 919.804L1045.82 919.531C1055.31 917.846 1064.93 916.999 1074.58 917C1080.88 916.998 1087.18 917.363 1093.44 918.094C1132.79 922.716 1169.07 941.605 1195.4 971.179C1221.72 1000.75 1236.26 1038.95 1236.26 1078.53Z" fill="#0B4A59"/>
<path d="M1194.64 1186.69C1191.37 1190.34 1187.94 1193.81 1184.35 1197.09H964.771C942.795 1176.78 926.893 1150.78 918.835 1121.98C910.778 1093.18 910.881 1062.71 919.134 1033.97C927.387 1005.22 943.465 979.33 965.579 959.174C987.692 939.018 1014.97 925.388 1044.38 919.804L1045.82 919.531C1055.31 917.846 1064.93 916.999 1074.58 917H1087.41C1089.47 916.994 1091.51 917.365 1093.44 918.094C1115.6 920.647 1136.98 927.799 1156.21 939.09C1156.46 940.688 1156.58 942.302 1156.57 943.919C1156.57 958.787 1146.98 970.837 1135.21 970.837H1152.61C1164.41 970.837 1173.99 982.888 1173.99 997.756C1173.99 1012.62 1164.4 1024.69 1152.61 1024.69H1113.04C1124.84 1024.69 1134.4 1036.73 1134.4 1051.59C1134.4 1066.46 1124.81 1078.53 1113.04 1078.53H1170.03C1181.83 1078.53 1191.4 1090.56 1191.4 1105.44C1191.4 1120.33 1181.82 1132.36 1170.03 1132.36H1135.25C1147.04 1132.36 1156.61 1144.43 1156.61 1159.28C1156.61 1174.14 1147.02 1186.21 1135.25 1186.21H1190.65C1191.99 1186.22 1193.33 1186.38 1194.64 1186.69V1186.69Z" fill="#5FB3C1"/>
<path d="M965.045 1195.4C943.207 1175.17 927.416 1149.28 919.429 1120.62C911.441 1091.95 911.57 1061.64 919.8 1033.04C928.031 1004.44 944.041 978.69 966.049 958.641C988.058 938.592 1015.2 925.033 1044.46 919.474L1045.83 919.201C1055.29 917.53 1064.87 916.687 1074.47 916.684H1087.3C1089.27 916.678 1091.24 917.035 1093.09 917.737C1101.85 920.965 1107.97 931.32 1107.97 942.919C1107.97 957.39 1098.7 969.154 1087.3 969.154V970.521H1104.71C1116.12 970.521 1125.4 982.285 1125.4 996.756C1125.4 1011.23 1116.12 1023 1104.71 1023H1065.22V1024.37C1076.63 1024.37 1085.91 1036.14 1085.91 1050.59C1085.91 1065.05 1076.63 1076.84 1065.22 1076.84V1078.21H1122.21C1133.62 1078.21 1142.9 1089.97 1142.9 1104.44C1142.9 1118.92 1133.62 1130.68 1122.21 1130.68H1087.39V1132.05C1098.8 1132.05 1108.07 1143.81 1108.07 1158.28C1108.07 1172.75 1098.8 1184.53 1087.39 1184.53V1185.9H1142.79C1149.01 1185.9 1154.75 1189.34 1158.69 1195.47L965.045 1195.4Z" fill="#31575B"/>
<path d="M1107.4 1197.09H962.895C940.83 1176.7 924.892 1150.56 916.868 1121.63C908.844 1092.69 909.053 1062.09 917.47 1033.27C925.887 1004.44 942.18 978.528 964.521 958.438C986.861 938.348 1014.36 924.875 1043.94 919.531L1044.38 919.804C1051.41 924.208 1056.23 933.345 1056.23 943.919C1056.23 958.787 1046.64 970.837 1034.87 970.837H1052.28C1064.07 970.837 1073.64 982.888 1073.64 997.756C1073.64 1012.62 1064.04 1024.74 1052.28 1024.74H1012.71C1024.5 1024.74 1034.07 1036.78 1034.07 1051.65C1034.07 1066.52 1024.49 1078.58 1012.71 1078.58H1069.69C1081.5 1078.58 1091.05 1090.62 1091.05 1105.5C1091.05 1120.38 1081.46 1132.42 1069.69 1132.42H1034.87C1046.67 1132.42 1056.23 1144.48 1056.23 1159.34C1056.23 1174.19 1046.64 1186.27 1034.87 1186.27H1090.27C1097.29 1186.21 1103.51 1190.49 1107.4 1197.09Z" fill="#70D8EF"/>
<path d="M1085.41 917.436C1087.31 917.431 1089.19 917.774 1090.97 918.448C1099.47 921.581 1105.4 931.675 1105.4 942.987C1105.4 957.076 1096.43 968.538 1085.41 968.538V971.274H1102.83C1113.86 971.274 1122.83 982.736 1122.83 996.824C1122.83 1010.91 1113.86 1022.44 1102.83 1022.44H1063.24V1025.18C1074.28 1025.18 1083.25 1036.64 1083.25 1050.72C1083.25 1064.79 1074.28 1076.28 1063.24 1076.28V1079.02H1120.23C1131.27 1079.02 1140.24 1090.48 1140.24 1104.57C1140.24 1118.66 1131.27 1130.12 1120.23 1130.12H1085.41V1132.85C1096.43 1132.85 1105.4 1144.32 1105.4 1158.4C1105.4 1172.49 1096.43 1183.97 1085.41 1183.97V1186.7H1140.81C1146.43 1186.7 1151.64 1189.65 1155.41 1194.91H963.323C941.632 1174.73 925.966 1148.94 918.064 1120.4C910.163 1091.86 910.336 1061.69 918.564 1033.24C926.792 1004.8 942.753 979.186 964.674 959.255C986.595 939.323 1013.62 925.851 1042.74 920.336L1044.11 920.063C1053.52 918.403 1063.06 917.565 1072.62 917.559H1085.45L1085.41 917.436ZM1085.45 916.192H1072.62C1062.98 916.191 1053.36 917.038 1043.87 918.722L1042.43 918.996C1013.04 924.592 985.786 938.221 963.691 958.368C941.597 978.514 925.529 1004.39 917.276 1033.11C909.023 1061.83 908.907 1092.28 916.942 1121.06C924.977 1149.85 940.848 1175.84 962.789 1196.16H1157.91C1154.03 1189.56 1147.81 1185.21 1140.78 1185.21H1085.41C1097.2 1185.21 1106.77 1173.15 1106.77 1158.28C1106.77 1143.41 1097.19 1131.36 1085.41 1131.36H1120.23C1132.03 1131.36 1141.61 1119.31 1141.61 1104.44C1141.61 1089.58 1132.02 1077.53 1120.23 1077.53H1063.24C1075.04 1077.53 1084.62 1065.48 1084.62 1050.59C1084.62 1035.71 1075.03 1023.69 1063.24 1023.69H1102.83C1114.63 1023.69 1124.2 1011.62 1124.2 996.756C1124.2 981.888 1114.62 969.837 1102.83 969.837H1085.41C1097.2 969.837 1106.77 957.787 1106.77 942.919C1106.77 930.69 1100.31 920.363 1091.45 917.094C1089.52 916.365 1087.47 915.994 1085.41 916L1085.45 916.192Z" fill="#3C5F68"/>
<path d="M420.739 186.471C422.251 186.471 423.477 185.247 423.477 183.736C423.477 182.225 422.251 181 420.739 181C419.226 181 418 182.225 418 183.736C418 185.247 419.226 186.471 420.739 186.471Z" fill="#FFFF00"/>
<path d="M1155.74 730.471C1157.25 730.471 1158.48 729.247 1158.48 727.736C1158.48 726.225 1157.25 725 1155.74 725C1154.23 725 1153 726.225 1153 727.736C1153 729.247 1154.23 730.471 1155.74 730.471Z" fill="#FFFF00"/>
<path d="M1304.74 130.471C1306.25 130.471 1307.48 129.247 1307.48 127.736C1307.48 126.225 1306.25 125 1304.74 125C1303.23 125 1302 126.225 1302 127.736C1302 129.247 1303.23 130.471 1304.74 130.471Z" fill="#FFFF00"/>
<path d="M318.739 962.471C320.251 962.471 321.477 961.247 321.477 959.736C321.477 958.225 320.251 957 318.739 957C317.226 957 316 958.225 316 959.736C316 961.247 317.226 962.471 318.739 962.471Z" fill="#FFFF00"/>
<path d="M345.739 339.471C347.251 339.471 348.477 338.247 348.477 336.736C348.477 335.225 347.251 334 345.739 334C344.226 334 343 335.225 343 336.736C343 338.247 344.226 339.471 345.739 339.471Z" fill="#FFFF00"/>
<path d="M32.7386 65.4713C34.2511 65.4713 35.4772 64.2465 35.4772 62.7357C35.4772 61.2248 34.2511 60 32.7386 60C31.2261 60 30 61.2248 30 62.7357C30 64.2465 31.2261 65.4713 32.7386 65.4713Z" fill="#FFFF00"/>
<path d="M316.739 150.471C318.251 150.471 319.477 149.247 319.477 147.736C319.477 146.225 318.251 145 316.739 145C315.226 145 314 146.225 314 147.736C314 149.247 315.226 150.471 316.739 150.471Z" fill="#FFFF00"/>
<path d="M32.7386 234.471C34.2511 234.471 35.4772 233.247 35.4772 231.736C35.4772 230.225 34.2511 229 32.7386 229C31.2261 229 30 230.225 30 231.736C30 233.247 31.2261 234.471 32.7386 234.471Z" fill="#FFFF00"/>
<path d="M1306.85 400.667C1317.82 400.667 1326.71 391.787 1326.71 380.833C1326.71 369.88 1317.82 361 1306.85 361C1295.89 361 1287 369.88 1287 380.833C1287 391.787 1295.89 400.667 1306.85 400.667Z" fill="#FFFF00"/>
<path d="M988.108 133.207C990.377 133.207 992.216 131.37 992.216 129.103C992.216 126.837 990.377 125 988.108 125C985.839 125 984 126.837 984 129.103C984 131.37 985.839 133.207 988.108 133.207Z" stroke="#FF1D25" stroke-width="9" stroke-miterlimit="10"/>
<path d="M607.17 125.299C617.758 125.299 626.34 116.725 626.34 106.149C626.34 95.5735 617.758 87 607.17 87C596.583 87 588 95.5735 588 106.149C588 116.725 596.583 125.299 607.17 125.299Z" fill="#F7FBFC"/>
<path d="M288.531 438.368C289.75 438.368 290.941 438.729 291.954 439.405C292.968 440.081 293.758 441.043 294.224 442.168C294.69 443.292 294.812 444.53 294.575 445.724C294.337 446.918 293.75 448.015 292.888 448.875C292.026 449.736 290.929 450.322 289.733 450.56C288.538 450.797 287.299 450.676 286.173 450.21C285.047 449.744 284.085 448.955 283.408 447.943C282.731 446.93 282.369 445.74 282.369 444.523C282.373 442.892 283.023 441.328 284.178 440.175C285.333 439.021 286.898 438.371 288.531 438.368V438.368ZM288.531 437C287.042 437 285.586 437.441 284.347 438.268C283.109 439.094 282.143 440.269 281.573 441.644C281.003 443.019 280.854 444.531 281.145 445.991C281.435 447.45 282.153 448.79 283.206 449.843C284.259 450.895 285.601 451.611 287.062 451.901C288.523 452.192 290.037 452.043 291.413 451.473C292.789 450.904 293.966 449.94 294.793 448.703C295.621 447.465 296.062 446.011 296.062 444.523C296.062 442.528 295.269 440.614 293.856 439.203C292.444 437.793 290.529 437 288.531 437V437Z" fill="black"/>
<path d="M279.846 456.678C283.628 456.678 286.693 453.616 286.693 449.839C286.693 446.062 283.628 443 279.846 443C276.065 443 273 446.062 273 449.839C273 453.616 276.065 456.678 279.846 456.678Z" fill="#F7FBFC"/>
<path d="M1269.85 815.678C1273.63 815.678 1276.69 812.616 1276.69 808.839C1276.69 805.062 1273.63 802 1269.85 802C1266.07 802 1263 805.062 1263 808.839C1263 812.616 1266.07 815.678 1269.85 815.678Z" fill="#F7FBFC"/>
<path d="M272.846 53.6782C276.628 53.6782 279.693 50.6162 279.693 46.8391C279.693 43.062 276.628 40 272.846 40C269.065 40 266 43.062 266 46.8391C266 50.6162 269.065 53.6782 272.846 53.6782Z" fill="#F7FBFC"/>
</g>
<defs>
<clipPath id="clip0">
<rect width="1440" height="1174" fill="white"/>
</clipPath>
</defs>
</svg>
