<svg width="24" height="24" viewBox="0 0 24 24" fill="none" xmlns="http://www.w3.org/2000/svg">
<path d="M12.7073 15.5355L14.1215 16.9497L12.0002 19.0711C10.0475 21.0237 6.88171 21.0237 4.92909 19.0711C2.97647 17.1184 2.97647 13.9526 4.92909 12L7.05041 9.87867L8.46462 11.2929L6.3433 13.4142C5.17173 14.5858 5.17173 16.4853 6.3433 17.6568C7.51487 18.8284 9.41437 18.8284 10.5859 17.6568L12.7073 15.5355Z" fill="#2E3A59"/>
<path d="M11.293 8.46445L9.87884 7.05024L12.0002 4.92892C13.9528 2.9763 17.1186 2.9763 19.0712 4.92892C21.0238 6.88154 21.0238 10.0474 19.0712 12L16.9499 14.1213L15.5357 12.7071L17.657 10.5858C18.8286 9.4142 18.8286 7.51471 17.657 6.34313C16.4854 5.17156 14.5859 5.17156 13.4144 6.34313L11.293 8.46445Z" fill="#2E3A59"/>
<path d="M14.8286 7.75735L7.75752 14.8284L9.17173 16.2426L16.2428 9.17156L14.8286 7.75735Z" fill="#2E3A59"/>
</svg>
